<svg xmlns="http://www.w3.org/2000/svg" viewBox="0 0 512 512" role="img" aria-label="サ印帳">
  <defs>
    <linearGradient id="bg" x1="68" x2="444" y1="48" y2="470" gradientUnits="userSpaceOnUse">
      <stop stop-color="#101417"/>
      <stop offset=".58" stop-color="#1d2422"/>
      <stop offset="1" stop-color="#3d2716"/>
    </linearGradient>
    <filter id="shadow" x="-20%" y="-20%" width="140%" height="140%">
      <feDropShadow dx="5" dy="9" stdDeviation="5" flood-color="#101417" flood-opacity=".32"/>
    </filter>
  </defs>
  <rect width="512" height="512" rx="92" fill="url(#bg)"/>
  <path d="M44 338c46-22 82-22 124 0s78 22 124 0 82-22 124 0" fill="none" stroke="#bb8d23" stroke-width="8" stroke-linecap="round" opacity=".6"/>
  <circle cx="256" cy="258" r="178" fill="#fff7df" stroke="#d85a3a" stroke-width="20"/>
  <circle cx="256" cy="258" r="139" fill="none" stroke="#d85a3a" stroke-width="8" stroke-dasharray="16 14" opacity=".9"/>
  <path d="M179 330c27-23 59-34 94-31 35 2 62 19 91 15" fill="none" stroke="#0a8f8a" stroke-width="18" stroke-linecap="round"/>
  <path d="M206 178c0-32 26-43 19-74M263 179c0-30 28-45 22-76M320 178c0-30 25-42 21-72" fill="none" stroke="#d85a3a" stroke-width="15" stroke-linecap="round"/>
  <g filter="url(#shadow)">
    <path d="M161 203h190M202 169v139M296 169v202" fill="none" stroke="#fff7df" stroke-width="54" stroke-linecap="round" stroke-linejoin="round"/>
    <path d="M161 203h190M202 169v139M296 169v202" fill="none" stroke="#d85a3a" stroke-width="32" stroke-linecap="round" stroke-linejoin="round"/>
  </g>
  <circle cx="256" cy="380" r="14" fill="#0a8f8a"/>
</svg>
