<svg xmlns="http://www.w3.org/2000/svg" viewBox="0 0 512 512" role="img" aria-label="サ印帳">
  <rect width="512" height="512" fill="#fffdf4"/>
  <path d="M0 0h512v132c-46 24-96 30-151 18-69-16-113-52-185-40C105 121 55 169 0 160Z" fill="#f6b21a"/>
  <path d="M0 414c58-30 105-27 154 3 43 27 85 29 130 3 54-31 108-29 169 11 24 16 44 23 59 23v58H0Z" fill="#fff0ce"/>
  <path d="M30 438c34-19 67-20 101-4 34 16 65 14 99-6 37-22 74-20 111 2" fill="none" stroke="#f6b21a" stroke-width="8" stroke-linecap="round" opacity=".65"/>

  <circle cx="165" cy="284" r="112" fill="#fffdf4" stroke="#d94a32" stroke-width="17"/>
  <circle cx="165" cy="284" r="86" fill="none" stroke="#d94a32" stroke-width="7" stroke-dasharray="14 13" opacity=".9"/>
  <path d="M116 334c22-17 48-22 77-15 23 5 45 2 66-11" fill="none" stroke="#0f6f75" stroke-width="16" stroke-linecap="round"/>
  <path d="M96 360c27-18 57-22 90-13 28 8 55 5 82-8" fill="none" stroke="#0f6f75" stroke-width="16" stroke-linecap="round"/>
  <path d="M130 254c0-29 25-42 19-72M171 255c0-28 26-42 20-72M213 254c0-28 24-40 19-69" fill="none" stroke="#d94a32" stroke-width="16" stroke-linecap="round"/>

  <g stroke="#1d1d1b" stroke-linecap="round" stroke-linejoin="round">
    <path d="M283 217c-28 34-43 77-43 125 0 71 40 93 92 93 59 0 94-27 94-97 0-45-18-86-48-119-29-21-66-22-95-2Z" fill="#ffffff" stroke-width="12"/>
    <path d="M259 181c13-47 57-77 107-65 48 12 77 50 72 100-24 13-59 13-96 1-36-12-63-25-83-36Z" fill="#f6b21a" stroke-width="12"/>
    <path d="M292 183c21 12 58 23 99 25" fill="none" stroke-width="8"/>
    <path d="M350 113c12-21 31-18 35-1" fill="none" stroke-width="9"/>
    <path d="M318 253c7 8 17 8 24 0M370 253c7 8 17 8 24 0M335 288c15 10 35 10 49 0" fill="none" stroke-width="8"/>

    <path d="M242 311l79-26 54 45-18 78-84 6-43-53Z" fill="#fffdf4" stroke-width="11"/>
    <path d="M285 299l-9 101M325 306l-14 99" fill="none" stroke="#d4bea0" stroke-width="7"/>
    <circle cx="267" cy="333" r="13" fill="#d94a32" stroke="none"/>
    <circle cx="312" cy="329" r="13" fill="#d4bea0" stroke="none"/>
    <circle cx="351" cy="350" r="13" fill="#d4bea0" stroke="none"/>
    <circle cx="299" cy="374" r="13" fill="#d4bea0" stroke="none"/>
    <path d="M266 333c0-12 9-20 20-21" fill="none" stroke="#fffdf4" stroke-width="7"/>

    <path d="M399 319c14-6 28 3 31 17l14 62c3 14-5 27-18 30-13 3-25-5-28-18l-14-65c-3-12 3-22 15-26Z" fill="#f6b21a" stroke-width="11"/>
    <path d="M388 338l42-10M396 397l41-9" fill="none" stroke-width="8"/>
    <path d="M245 366c-21 9-39 4-48-10M262 418c-8 22-25 29-45 24M382 420c3 24 19 31 39 22" fill="none" stroke-width="11"/>
  </g>

  <g fill="none" stroke="#d4bea0" stroke-linecap="round" stroke-width="9" opacity=".86">
    <path d="M430 176c23 3 35 19 34 41"/>
    <path d="M439 238c24 8 33 27 24 51"/>
  </g>
</svg>
